<svg width="43" height="44" viewBox="0 0 43 44" fill="none" xmlns="http://www.w3.org/2000/svg">
<g clip-path="url(#clip0_1279_25579)">
<path d="M32.8152 11.0666H10.1836V33.6982H32.8152V11.0666Z" fill="white"/>
<path d="M32.8164 43.8821L43.0006 33.6979H32.8164V43.8821Z" fill="#EA4335"/>
<path d="M43.0006 11.0666H32.8164V33.6982H43.0006V11.0666Z" fill="#FBBC04"/>
<path d="M32.8152 33.6979H10.1836V43.8821H32.8152V33.6979Z" fill="#34A853"/>
<path d="M0 33.6979V40.4874C0 42.363 1.51914 43.8821 3.39474 43.8821H10.1842V33.6979H0Z" fill="#188038"/>
<path d="M43.0006 11.0667V4.27718C43.0006 2.40159 41.4815 0.882446 39.6059 0.882446H32.8164V11.0667H43.0006Z" fill="#1967D2"/>
<path d="M32.8158 0.882507H3.39474C1.51914 0.882507 0 2.40165 0 4.27724V33.6983H10.1842V11.0667H32.8158V0.882507Z" fill="#4285F4"/>
<path d="M14.8253 28.6227C13.9795 28.0513 13.3939 27.2167 13.0742 26.1134L15.0375 25.3044C15.2157 25.9833 15.5269 26.5095 15.9711 26.8829C16.4124 27.2563 16.9499 27.4402 17.5779 27.4402C18.2201 27.4402 18.7717 27.245 19.2328 26.8546C19.694 26.4642 19.9259 25.9663 19.9259 25.3638C19.9259 24.7471 19.6826 24.2435 19.1961 23.8531C18.7095 23.4627 18.0984 23.2675 17.3686 23.2675H16.2342V21.324H17.2526C17.8806 21.324 18.4096 21.1543 18.8396 20.8148C19.2696 20.4754 19.4846 20.0114 19.4846 19.4202C19.4846 18.894 19.2922 18.4753 18.9075 18.1613C18.5228 17.8473 18.0362 17.6888 17.4449 17.6888C16.8678 17.6888 16.4095 17.8416 16.0701 18.15C15.7308 18.4591 15.4758 18.8495 15.3289 19.2844L13.3854 18.4753C13.6428 17.7454 14.1153 17.1004 14.8084 16.5431C15.5015 15.9858 16.3869 15.7057 17.4619 15.7057C18.2569 15.7057 18.9726 15.8585 19.6063 16.1669C20.2399 16.4752 20.7378 16.9024 21.0971 17.4456C21.4564 17.9915 21.6346 18.6026 21.6346 19.2815C21.6346 19.9746 21.4677 20.5602 21.1339 21.0411C20.8001 21.5221 20.3899 21.8898 19.9033 22.1473V22.2633C20.5316 22.5223 21.0773 22.9477 21.4819 23.4938C21.892 24.0455 22.0986 24.7046 22.0986 25.4741C22.0986 26.2436 21.9034 26.931 21.513 27.5336C21.1226 28.1361 20.5822 28.6114 19.8976 28.9565C19.2102 29.3017 18.4379 29.4771 17.5807 29.4771C16.5878 29.4799 15.6712 29.1942 14.8253 28.6227ZM26.8851 18.8798L24.7295 20.4386L23.6516 18.8035L27.5188 16.0141H29.0012V29.1715H26.8851V18.8798Z" fill="#4285F4"/>
</g>
<defs>
<clipPath id="clip0_1279_25579">
<rect width="43" height="43" fill="white" transform="translate(0 0.882568)"/>
</clipPath>
</defs>
</svg>
