<svg width="36" height="33" viewBox="0 0 36 33" fill="none" xmlns="http://www.w3.org/2000/svg">
<path d="M31.7237 0.896484H12.738C12.3268 0.896484 11.9324 1.05987 11.6416 1.35069C11.3509 1.64151 11.1875 2.03595 11.1875 2.44724V4.21006L21.8885 7.52363L33.2741 4.21006V2.44724C33.2741 2.03595 33.1108 1.64151 32.82 1.35069C32.5292 1.05987 32.1349 0.896484 31.7237 0.896484Z" fill="#0364B8"/>
<path d="M35.0979 17.912C35.2597 17.4034 35.3888 16.8851 35.4844 16.3601C35.4843 16.2311 35.4502 16.1044 35.3857 15.9928C35.3211 15.8811 35.2284 15.7884 35.1167 15.7239L35.1023 15.7151L35.0979 15.7128L23.1292 8.89351C23.0775 8.86 23.0241 8.82939 22.969 8.80184C22.7401 8.68817 22.488 8.62903 22.2325 8.62903C21.9769 8.62903 21.7248 8.68817 21.4959 8.80184C21.4408 8.82902 21.3874 8.85926 21.3357 8.89241L9.36699 15.7139L9.36257 15.7162L9.34932 15.7239C9.23743 15.7882 9.14444 15.8809 9.0797 15.9926C9.01495 16.1043 8.98073 16.231 8.98047 16.3601C9.07614 16.8851 9.20524 17.4034 9.36699 17.912L22.058 27.1955L35.0979 17.912Z" fill="#0A2767"/>
<path d="M26.6497 4.21021H18.9194L16.6875 7.52378L18.9194 10.8374L26.6497 17.4645H33.2757V10.8374L26.6497 4.21021Z" fill="#28A8EA"/>
<path d="M11.1875 4.21021H18.9178V10.8374H11.1875V4.21021Z" fill="#0078D4"/>
<path d="M26.6484 4.21021H33.2744V10.8374H26.6484V4.21021Z" fill="#50D9FF"/>
<path d="M26.6482 17.4645L18.9178 10.8373H11.1875V17.4645L18.9178 24.0916L30.88 26.0444L26.6482 17.4645Z" fill="#0364B8"/>
<path d="M18.918 10.8373H26.6483V17.4645H18.918V10.8373Z" fill="#0078D4"/>
<path d="M11.1875 17.4647H18.9178V24.0919H11.1875V17.4647Z" fill="#064A8C"/>
<path d="M26.6484 17.4647H33.2744V24.0919H26.6484V17.4647Z" fill="#0078D4"/>
<path opacity="0.5" d="M22.4414 26.5416L9.41797 17.0427L9.96461 16.0818C9.96461 16.0818 21.8307 22.8415 22.0118 22.9431C22.0859 22.9727 22.1653 22.9869 22.2451 22.9846C22.3248 22.9823 22.4033 22.9637 22.4756 22.9298L34.5493 16.0486L35.097 17.0085L22.4414 26.5416Z" fill="#0A2767"/>
<path d="M35.1155 16.9974L35.1 17.0062L35.0967 17.0084L23.128 23.8277C22.8902 23.981 22.6172 24.0708 22.3349 24.0884C22.0526 24.106 21.7705 24.0508 21.5156 23.9282L25.6834 29.5182L34.7985 31.5031V31.5075C35.0106 31.3541 35.1832 31.1526 35.3022 30.9195C35.4212 30.6864 35.4833 30.4283 35.4832 30.1666V16.36C35.4833 16.4892 35.4493 16.6161 35.3847 16.728C35.3202 16.8399 35.2273 16.9328 35.1155 16.9974Z" fill="#1490DF"/>
<path opacity="0.05" d="M35.4832 30.1665V29.3513L24.4587 23.0688L23.128 23.8276C22.8902 23.9809 22.6172 24.0706 22.3349 24.0882C22.0526 24.1058 21.7705 24.0507 21.5156 23.9281L25.6834 29.5181L34.7985 31.5029V31.5074C35.0106 31.3539 35.1832 31.1524 35.3022 30.9193C35.4212 30.6862 35.4833 30.4282 35.4832 30.1665Z" fill="black"/>
<path opacity="0.1" d="M35.428 30.5897L23.3433 23.7052L23.128 23.8267C22.8903 23.9802 22.6173 24.0701 22.335 24.0879C22.0528 24.1057 21.7706 24.0507 21.5156 23.9283L25.6834 29.5183L34.7985 31.5031V31.5076C35.1076 31.2836 35.33 30.9598 35.428 30.5908V30.5897Z" fill="black"/>
<path d="M9.36702 17.0117V17.0007H9.35597L9.32284 16.9786C9.21727 16.9138 9.13026 16.8228 9.07027 16.7144C9.01028 16.606 8.97936 16.4839 8.9805 16.36V30.1666C8.98021 30.3843 9.02286 30.5998 9.106 30.801C9.18914 31.0021 9.31115 31.1849 9.46503 31.3388C9.61891 31.4927 9.80163 31.6147 10.0027 31.6979C10.2038 31.781 10.4194 31.8237 10.637 31.8234H33.828C33.9659 31.822 34.1032 31.8035 34.2366 31.7682C34.3058 31.7561 34.3728 31.7338 34.4354 31.7019C34.4588 31.6996 34.4815 31.6921 34.5016 31.6798C34.592 31.6428 34.6773 31.5946 34.7556 31.5362C34.7777 31.5252 34.7887 31.5252 34.7998 31.5031L9.36702 17.0117Z" fill="#28A8EA"/>
<path opacity="0.1" d="M20.0238 25.9328V7.89152C20.0226 7.50139 19.8672 7.12758 19.5913 6.85171C19.3155 6.57585 18.9418 6.42035 18.5517 6.41919H11.2223V14.6545L9.36699 15.7127L9.36146 15.7149L9.34821 15.7226C9.23637 15.7872 9.1435 15.8801 9.07894 15.992C9.01439 16.1038 8.98042 16.2307 8.98047 16.3599V16.3654V16.3599V27.4051H18.5517C18.9418 27.404 19.3155 27.2485 19.5913 26.9726C19.8672 26.6968 20.0226 26.3229 20.0238 25.9328Z" fill="black"/>
<path opacity="0.2" d="M18.9195 27.0377V8.99644C18.9183 8.60631 18.7628 8.2325 18.487 7.95663C18.2112 7.68077 17.8374 7.52527 17.4474 7.52411H11.2223V14.6549L9.36699 15.7131L9.36146 15.7153L9.34821 15.723C9.23637 15.7876 9.1435 15.8805 9.07894 15.9924C9.01439 16.1042 8.98042 16.2311 8.98047 16.3603V16.3658V16.3603V28.5101H17.4474C17.8374 28.5089 18.2112 28.3534 18.487 28.0775C18.7628 27.8017 18.9183 27.4279 18.9195 27.0377Z" fill="black"/>
<path opacity="0.2" d="M18.9195 24.8287V8.99644C18.9183 8.60631 18.7628 8.2325 18.487 7.95663C18.2112 7.68077 17.8374 7.52527 17.4474 7.52411H11.2223V14.6549L9.36699 15.713L9.36146 15.7153L9.34821 15.723C9.23637 15.7876 9.1435 15.8805 9.07894 15.9924C9.01439 16.1042 8.98042 16.2311 8.98047 16.3603V16.3658V16.3603V26.301H17.4474C17.8374 26.2999 18.2112 26.1444 18.487 25.8685C18.7628 25.5926 18.9183 25.2188 18.9195 24.8287Z" fill="black"/>
<path opacity="0.2" d="M17.8151 24.8287V8.99644C17.814 8.60631 17.6585 8.2325 17.3827 7.95663C17.1069 7.68077 16.7331 7.52527 16.3431 7.52411H11.2223V14.6549L9.36699 15.713L9.36146 15.7153L9.34821 15.723C9.23637 15.7876 9.1435 15.8805 9.07894 15.9924C9.01439 16.1042 8.98042 16.2311 8.98047 16.3603V16.3658V16.3603V26.301H16.3431C16.7331 26.2999 17.1069 26.1444 17.3827 25.8685C17.6585 25.5926 17.814 25.2188 17.8151 24.8287Z" fill="black"/>
<path d="M1.61661 7.52411H16.3418C16.7322 7.52411 17.1066 7.67923 17.3827 7.95534C17.6588 8.23146 17.8138 8.60595 17.8138 8.99644V23.7242C17.8138 24.1147 17.6588 24.4891 17.3827 24.7653C17.1066 25.0414 16.7322 25.1965 16.3418 25.1965H1.61661C1.22619 25.1965 0.85176 25.0414 0.575692 24.7653C0.299624 24.4891 0.144531 24.1147 0.144531 23.7242L0.144531 8.99644C0.144531 8.60595 0.299624 8.23146 0.575692 7.95534C0.85176 7.67923 1.22619 7.52411 1.61661 7.52411Z" fill="#0078D4"/>
<path d="M4.41702 13.5633C4.80817 12.7296 5.43966 12.0318 6.23033 11.5597C7.10631 11.0582 8.10371 10.8082 9.11264 10.8374C10.0469 10.8171 10.9687 11.054 11.7774 11.5222C12.5387 11.9757 13.1518 12.6407 13.5421 13.4363C13.9674 14.3133 14.1793 15.2784 14.1605 16.2529C14.181 17.2707 13.9628 18.2792 13.5233 19.1975C13.1245 20.0214 12.4929 20.7103 11.7067 21.179C10.8663 21.6621 9.90946 21.9055 8.94036 21.8826C7.98565 21.9053 7.04297 21.6658 6.21487 21.1901C5.44752 20.7358 4.8272 20.0701 4.42806 19.2726C3.9999 18.4086 3.78517 17.4545 3.80191 16.4903C3.78339 15.4807 3.99368 14.48 4.41702 13.5633ZM6.3496 18.2664C6.55798 18.7935 6.91139 19.2507 7.3689 19.5852C7.8351 19.9116 8.39358 20.0799 8.96245 20.0657C9.56846 20.0892 10.1657 19.9152 10.6642 19.5697C11.1166 19.2355 11.4611 18.7758 11.6548 18.2476C11.8721 17.6592 11.9791 17.0358 11.9707 16.4086C11.9774 15.7754 11.8766 15.1457 11.6725 14.5464C11.4924 14.0071 11.1603 13.5315 10.7161 13.1768C10.2308 12.8139 9.63525 12.6294 9.02982 12.6543C8.44856 12.6396 7.87758 12.8094 7.39872 13.1392C6.93223 13.4742 6.57066 13.9351 6.35623 14.4679C5.88187 15.6895 5.87911 17.044 6.3485 18.2675L6.3496 18.2664Z" fill="white"/>
</svg>
