<svg width="36" height="16" viewBox="0 0 36 16" fill="none" xmlns="http://www.w3.org/2000/svg">
<path d="M2.52998 6.74332C2.52998 6.34874 2.84998 6.19691 3.38006 6.19691C4.14 6.19691 5.09998 6.4297 5.85998 6.84456V4.46659C5.03002 4.1327 4.21003 4.00114 3.38006 4.00114C1.35 4.00114 0 5.07377 0 6.86484C0 9.65753 3.79997 9.21236 3.79997 10.4165C3.79997 10.8819 3.40003 11.0337 2.83999 11.0337C2.01002 11.0337 0.949992 10.6897 0.109969 10.2242V12.6325C1.03999 13.0373 1.98 13.2092 2.83999 13.2092C4.91998 13.2092 6.34999 12.1671 6.34999 10.3558C6.34001 7.34039 2.52998 7.87663 2.52998 6.74332ZM9.28997 1.97742L6.84998 2.50355L6.84 10.6087C6.84 12.1064 7.95002 13.2092 9.43003 13.2092C10.25 13.2092 10.85 13.0575 11.18 12.8753V10.8212C10.86 10.9528 9.27998 11.4182 9.27998 9.92064V6.32846H11.18V4.17318H9.27998L9.28997 1.97742ZM14.29 4.92194L14.13 4.17318H11.97V13.0271H14.47V7.0267C15.06 6.24756 16.06 6.38922 16.37 6.50049V4.17318C16.05 4.05173 14.88 3.82911 14.29 4.92194ZM16.98 4.17318H19.49V13.0271H16.98V4.17318ZM16.98 3.40414L19.49 2.85773V0.803619L16.98 1.33993V3.40407V3.40414ZM24.71 4.00114C23.73 4.00114 23.1 4.46659 22.75 4.79046L22.62 4.16308H20.42V15.9615L22.92 15.4253L22.93 12.5616C23.29 12.8247 23.82 13.1991 24.7 13.1991C26.49 13.1991 28.12 11.742 28.12 8.5344C28.11 5.59991 26.46 4.00114 24.71 4.00114ZM24.11 10.973C23.52 10.973 23.1699 10.7605 22.93 10.4974L22.92 6.74332C23.18 6.44991 23.54 6.24756 24.11 6.24756C25.02 6.24756 25.65 7.27963 25.65 8.60519C25.65 9.96112 25.03 10.973 24.11 10.973ZM36 8.63557C36 6.04515 34.76 4.00114 32.39 4.00114C30.0099 4.00114 28.5699 6.04522 28.5699 8.61536C28.5699 11.6611 30.27 13.1991 32.7099 13.1991C33.9 13.1991 34.8 12.9259 35.48 12.5414V10.5176C34.8 10.8617 34.02 11.0742 33.03 11.0742C32.06 11.0742 31.2 10.7302 31.09 9.53616H35.98C35.98 9.40453 36 8.8784 36 8.63557ZM31.06 7.67429C31.06 6.53087 31.75 6.05525 32.38 6.05525C32.99 6.05525 33.64 6.53087 33.64 7.67429H31.06Z" fill="#6772E5"/>
</svg>
